<svg width="8" height="8" viewBox="0 0 8 8" fill="none" xmlns="http://www.w3.org/2000/svg">
<path d="M7.16628 3.74282L3.52992 0.106529C3.38794 -0.0354831 3.15768 -0.0354831 3.01567 0.106553C2.87368 0.248565 2.87368 0.478795 3.01567 0.620807L6.39489 3.99995L3.01567 7.37925C2.87368 7.52126 2.87368 7.75149 3.01567 7.8935C3.08668 7.96451 3.17974 8 3.27279 8C3.36583 8 3.45892 7.96451 3.52992 7.89348L7.16628 4.25705C7.23448 4.18885 7.27278 4.09637 7.27278 3.99993C7.27278 3.90349 7.23448 3.81101 7.16628 3.74282Z" fill="black"/>
<path d="M4.36365 3.99991C4.36365 3.90345 4.32532 3.81096 4.25713 3.74277L0.620742 0.106506C0.47873 -0.035506 0.2485 -0.035506 0.106488 0.10653C-0.0355 0.248542 -0.0355 0.478772 0.106512 0.620784L3.48576 3.99993L0.106488 7.37925C-0.0355 7.52126 -0.0355 7.75149 0.106512 7.8935C0.177494 7.96451 0.27056 8 0.363627 8C0.456694 8 0.54976 7.96451 0.620766 7.89348L4.25715 4.25702C4.32532 4.18885 4.36365 4.09634 4.36365 3.99991Z" fill="black"/>
</svg>
