<svg width="239" height="240" viewBox="0 0 239 240" fill="none" xmlns="http://www.w3.org/2000/svg">
<path d="M4.1001 235.8L20.4001 176.3C10.3001 158.9 5.1001 139.2 5.1001 119C5.1001 55.7002 56.6001 4.2002 119.9 4.2002C150.6 4.2002 179.4 16.2002 201.1 37.9002C222.8 59.6002 234.7 88.4002 234.7 119.1C234.7 182.4 183.2 233.9 119.9 233.9H119.8C100.6 233.9 81.7001 229.1 64.9001 219.9L4.1001 235.8Z" fill="#2FA543"/>
<path d="M0 240L16.9 178.4C6.5 160.4 1 139.9 1 119C1 53.4 54.3 0 119.9 0C151.7 0 181.6 12.4 204 34.9C226.5 57.4 238.8 87.2 238.8 119C238.8 184.5 185.4 237.9 119.9 237.9H119.8C99.9 237.9 80.3 232.9 63 223.4L0 240ZM65.9 201.9L69.5 204C84.7 213 102.1 217.8 119.8 217.8C174.3 217.8 218.6 173.5 218.6 119C218.6 92.6 208.3 67.8 189.7 49.1C171 30.4 146.2 20.1 119.8 20.1C65.3 20.1 20.9 64.4 20.9 118.9C20.9 137.6 26.1 155.8 36 171.5L38.4 175.2L28.4 211.7L65.9 201.9Z" fill="white"/>
<path fill-rule="evenodd" clip-rule="evenodd" d="M90.2 69.2C88 64.3 85.6 64.2 83.5 64.1C81.8 64 79.8 64 77.8 64C75.8 64 72.6 64.7 69.9 67.7C67.2 70.7 59.5 77.9 59.5 92.5C59.5 107.1 70.1 121.2 71.6 123.2C73.1 125.2 92.2 156.1 122.4 168C147.5 177.9 152.6 175.9 158.1 175.4C163.5 174.9 175.7 168.2 178.2 161.3C180.7 154.4 180.7 148.4 179.9 147.2C179.2 146 177.2 145.2 174.2 143.7C171.2 142.2 156.6 135 153.9 134C151.2 133 149.2 132.5 147.2 135.5C145.2 138.5 139.5 145.2 137.8 147.1C136.1 149.1 134.3 149.3 131.4 147.8C128.4 146.3 118.9 143.2 107.5 133.1C98.7 125.2 92.7 115.5 91 112.5C89.3 109.5 90.8 107.9 92.3 106.4C93.6 105.1 95.3 102.9 96.8 101.2C98.3 99.5 98.8 98.2 99.8 96.2C100.8 94.2 100.3 92.5 99.6 91C98.6 89.8 92.8 75.1 90.2 69.2Z" fill="white"/>
</svg>
